<svg stroke-miterlimit="10" style="fill-rule:nonzero;clip-rule:evenodd;stroke-linecap:round;stroke-linejoin:round" viewBox="0 0 32 32" xml:space="preserve" xmlns="http://www.w3.org/2000/svg"><path d="M0 0h32v32H0z"/><path d="M17.427 4.25c.615.42.855.609 1.356 1.079 1.537 1.443 2.564 3.32 3.01 5.5.16.773.207 1.288.207 2.208 0 .949-.046 1.435-.223 2.29-.442 2.135-1.44 4.016-2.948 5.537-.391.392-.994.924-1.053.924-.016 0-.004-.143.026-.319.787-4.367.454-12.88-.661-16.962-.127-.47-.135-.507-.101-.507.008 0 .185.114.387.25m-3.04 4.976c-.055.172-.194 1.235-.283 2.155-.084.891-.096 1.214-.096 3.517 0 3.026.067 4.29.379 7.135.231 2.082.627 4.286.99 5.529.067.229.113.425.104.437-.012.009-.147-.065-.307-.171-1.217-.81-2.455-2.086-3.284-3.378-1.352-2.11-2.03-4.735-1.866-7.189.22-3.173 1.588-5.9 3.916-7.786.409-.33.493-.376.447-.249" fill="#fff"/></svg>
